<?xml version="1.0" encoding="utf-8"?>
<!-- Generator: Adobe Illustrator 18.1.1, SVG Export Plug-In . SVG Version: 6.00 Build 0)  -->
<svg version="1.1" id="Layer_1" xmlns="http://www.w3.org/2000/svg" xmlns:xlink="http://www.w3.org/1999/xlink" x="0px" y="0px"
	 viewBox="0 0 400 400" enable-background="new 0 0 400 400" xml:space="preserve">
<path fill="#161616" d="M363.9,399.1c0,0-1.6-77.6-18-85.5c-16.4-7.9-48.3-20.8-57.1-24c-37.5-13.4-14.7-21.1-49.7-33.1v-8.7
	c0,0,21.3-10.7,27.7-49.1c0,0,12,5.5,11.4-11.9c-0.6-15.5,5.3-35.8-11.6-27c2.1-8.2,8.9-35.6,3.4-69.1c0,0-22.3-28.4-69.1-28.4
	s-69.1,28.4-69.1,28.4c-5.5,33.5,1.3,60.9,3.3,69.1c-16.9-8.8-11,11.5-11.6,27c-0.7,17.5,4.2,11.9,4.2,11.9
	c6.4,38.4,20.5,49.1,20.5,49.1v8.7c-40,11.9-4.9,19.6-42.4,33.1c-8.8,3.2-37,16.1-53.4,24c-16.4,7.9-16.3,85.5-16.3,85.5l164,3.4
	L363.9,399.1z"/>
</svg>
